<svg xmlns="http://www.w3.org/2000/svg" viewBox="0 0 131 40"> <g fill="none" fill-rule="evenodd"> <g fill="#496fb2"> <path d="M10.122 10.143a.613.613 0 0 0-.867 0L.18 19.238a.617.617 0 0 0 0 .868l6.912 6.927a.614.614 0 0 0 .866 0l9.077-9.096a.617.617 0 0 0 0-.868l-6.912-6.926zM21.715 12.73l.866.869 3.111 3.117.867.868 7.088 7.103a.613.613 0 0 0 .866 0l4.572-4.581a.616.616 0 0 0 0-.868L20.065.18a.613.613 0 0 0-.866 0L14.627 4.76a.616.616 0 0 0 0 .868l7.088 7.103zM22.23 22.275a.613.613 0 0 0-.867 0l-9.077 9.096a.617.617 0 0 0 0 .868l6.913 6.926a.614.614 0 0 0 .866 0l9.077-9.095a.617.617 0 0 0 0-.868l-6.913-6.927z"></path> </g> <g fill="#496fb2"> <path d="M69.32 14.684h-6.552v17.112h-4.001V14.684h-6.582v-3.516H69.32zM79.928 21.366h5.016c.367 0 .71-.088 1.03-.262.318-.174.593-.411.826-.711.231-.3.415-.654.55-1.06.135-.408.203-.843.203-1.308 0-.484-.077-.93-.232-1.337a3.504 3.504 0 0 0-.623-1.06c-.26-.3-.56-.533-.899-.697a2.333 2.333 0 0 0-1.029-.248h-4.842v6.683zm-4 10.43V11.167h9.103c.947 0 1.822.2 2.624.596.802.397 1.493.92 2.073 1.569a7.408 7.408 0 0 1 1.362 2.208c.329.823.493 1.651.493 2.484 0 1.336-.333 2.552-1 3.646-.667 1.094-1.57 1.884-2.71 2.368l4.841 7.756h-4.523l-4.32-6.914h-3.943v6.914h-4zM99.495 31.796h4.001V11.197h-4zM114.655 21.482c0 .891.13 1.753.392 2.585.26.833.637 1.57 1.13 2.209a5.67 5.67 0 0 0 1.812 1.54c.715.387 1.527.58 2.436.58.927 0 1.744-.198 2.45-.595a5.58 5.58 0 0 0 1.783-1.584 7.355 7.355 0 0 0 1.101-2.222c.251-.823.377-1.66.377-2.513 0-.89-.135-1.753-.405-2.586a7.26 7.26 0 0 0-1.146-2.208 5.56 5.56 0 0 0-1.797-1.525c-.706-.378-1.503-.567-2.392-.567-.928 0-1.745.2-2.45.596a5.825 5.825 0 0 0-1.798 1.569 6.994 6.994 0 0 0-1.116 2.208 8.565 8.565 0 0 0-.377 2.513m5.712 10.46c-1.45 0-2.774-.296-3.972-.887a9.872 9.872 0 0 1-3.088-2.354 10.543 10.543 0 0 1-1.986-3.355 11.088 11.088 0 0 1-.696-3.864c0-1.375.246-2.692.74-3.951a10.748 10.748 0 0 1 2.058-3.341 9.959 9.959 0 0 1 3.117-2.31c1.198-.571 2.503-.857 3.914-.857 1.45 0 2.773.305 3.972.915a9.992 9.992 0 0 1 3.073 2.397c.85.988 1.508 2.111 1.972 3.37.463 1.26.695 2.538.695 3.835a10.63 10.63 0 0 1-.739 3.937 10.758 10.758 0 0 1-2.044 3.312 9.894 9.894 0 0 1-3.102 2.295c-1.199.571-2.503.857-3.914.857"></path> </g> </g></svg>